<?xml version="1.0" encoding="utf-8"?>
<!-- Generator: Adobe Illustrator 25.4.1, SVG Export Plug-In . SVG Version: 6.00 Build 0)  -->
<svg version="1.1" id="Layer_1" xmlns="http://www.w3.org/2000/svg" xmlns:xlink="http://www.w3.org/1999/xlink" x="0px" y="0px"
	 viewBox="0 0 100 100" style="enable-background:new 0 0 100 100;" xml:space="preserve">
<style type="text/css">
	.st0{fill:#C0C0C0;}
</style>
<g>
	<path class="st0" d="M84.8,24.9H59.9l-6.8-11c-0.4-0.7-1.2-1.1-2-1.1H32.5c-3.3,0-6,2.7-6,6V29v36c0,3.3,2.7,6,6,6h41.1h11.3
		c3.3,0,6-2.7,6-6V30.9C90.8,27.6,88.1,24.9,84.8,24.9L84.8,24.9z"/>
	<path class="st0" d="M21.8,65V29h-6.5c-3.3,0-6,2.7-6,6v46.2c0,3.3,2.7,6,6,6h52.3c3.3,0,6-2.7,6-6v-5.6H32.5
		C26.6,75.7,21.8,70.9,21.8,65L21.8,65z"/>
</g>
</svg>
