<?xml version="1.0" encoding="utf-8"?>
<!-- Generator: Adobe Illustrator 25.4.1, SVG Export Plug-In . SVG Version: 6.00 Build 0)  -->
<svg version="1.1" id="Layer_1" xmlns="http://www.w3.org/2000/svg" xmlns:xlink="http://www.w3.org/1999/xlink" x="0px" y="0px"
	 viewBox="0 0 100 100" style="enable-background:new 0 0 100 100;" xml:space="preserve">
<style type="text/css">
	.st0{fill:#00FFFF;}
</style>
<g>
	<path class="st0" d="M16.3,47.6c1.1-16.7,14.6-30.2,31.3-31.3c17.3-1.2,32,10.6,35.4,26.6c0.9,4.2,4.7,7.1,8.9,7.1l0,0
		C92,26.3,72.3,7.1,48.4,8.1C26.6,8.9,8.9,26.6,8.1,48.4C7.1,72.3,26.3,92,50,92l0,0c0-4.3-2.9-8-7.1-8.9
		C26.9,79.6,15.1,64.9,16.3,47.6z"/>
	<g>
		<path class="st0" d="M68.3,52.9L68.3,52.9V82c0,4.5,3.7,8.2,8.2,8.2l0,0V61C76.5,56.5,72.9,52.9,68.3,52.9z"/>
		<path class="st0" d="M91.1,75.6L91.1,75.6H62c-4.5,0-8.2-3.7-8.2-8.2l0,0h29.1C87.4,67.4,91.1,71.1,91.1,75.6z"/>
	</g>
</g>
</svg>
