<svg xmlns="http://www.w3.org/2000/svg" xmlns:xlink="http://www.w3.org/1999/xlink" width="211.726" height="269.772" viewBox="0 0 211.726 269.772">
  <defs>
    <filter id="Path_21" x="14" y="14" width="197.726" height="255.772" filterUnits="userSpaceOnUse">
      <feOffset dx="7" dy="7" input="SourceAlpha"/>
      <feGaussianBlur stdDeviation="10.5" result="blur"/>
      <feFlood flood-color="#d300ff"/>
      <feComposite operator="in" in2="blur"/>
      <feComposite in="SourceGraphic"/>
    </filter>
    <filter id="Path_40" x="0" y="0" width="197.726" height="255.772" filterUnits="userSpaceOnUse">
      <feOffset dx="-7" dy="-7" input="SourceAlpha"/>
      <feGaussianBlur stdDeviation="10.5" result="blur-2"/>
      <feFlood flood-color="aqua"/>
      <feComposite operator="in" in2="blur-2"/>
      <feComposite in="SourceGraphic"/>
    </filter>
  </defs>
  <g id="Group_81" data-name="Group 81" transform="translate(-728.4 -792.482)">
    <g transform="matrix(1, 0, 0, 1, 728.4, 792.48)" filter="url(#Path_21)">
      <path id="Path_21-2" data-name="Path 21" d="M173.781,237.392c-7.027-8.828-14.025-17.28-20.652-26.014-13.608-17.936-25.924-36.7-35.364-57.22a123.85,123.85,0,0,1-10.135-31.177,67.21,67.21,0,0,1,32.152-68.991c41.294-24.185,93.694.788,100.928,48.13,2.054,13.441-.514,26.329-5.046,38.93-6.476,18.009-15.954,34.451-26.488,50.324a430.185,430.185,0,0,1-33.628,44.079C175.111,235.958,174.649,236.441,173.781,237.392Zm.172-101.349a24.017,24.017,0,1,0-23.923-24.392A23.91,23.91,0,0,0,173.953,136.043Z" transform="translate(-68.2 -6.12)" fill="#fff"/>
    </g>
    <g transform="matrix(1, 0, 0, 1, 728.4, 792.48)" filter="url(#Path_40)">
      <path id="Path_40-2" data-name="Path 40" d="M173.781,237.392c-7.027-8.828-14.025-17.28-20.652-26.014-13.608-17.936-25.924-36.7-35.364-57.22a123.85,123.85,0,0,1-10.135-31.177,67.21,67.21,0,0,1,32.152-68.991c41.294-24.185,93.694.788,100.928,48.13,2.054,13.441-.514,26.329-5.046,38.93-6.476,18.009-15.954,34.451-26.488,50.324a430.185,430.185,0,0,1-33.628,44.079C175.111,235.958,174.649,236.441,173.781,237.392Zm.172-101.349a24.017,24.017,0,1,0-23.923-24.392A23.91,23.91,0,0,0,173.953,136.043Z" transform="translate(-68.2 -6.12)" fill="#fff"/>
    </g>
  </g>
</svg>
