<?xml version="1.0" encoding="utf-8"?>
<!-- Generator: Adobe Illustrator 25.4.1, SVG Export Plug-In . SVG Version: 6.00 Build 0)  -->
<svg version="1.1" id="Layer_1" xmlns="http://www.w3.org/2000/svg" xmlns:xlink="http://www.w3.org/1999/xlink" x="0px" y="0px"
	 viewBox="0 0 100 100" style="enable-background:new 0 0 100 100;" xml:space="preserve">
<style type="text/css">
	.st0{fill:#FFFFFF;}
</style>
<g>
	<path class="st0" d="M87.53,24.8c-2.11-4.56-5.53-7.72-10.23-9.5c-2.71-1.03-5.53-1.18-8.37-1.07c-0.88,0.03-1.26-0.17-1.52-1.11
		c-1.39-4.95-4.5-8.42-9.33-10.27c-1.07-0.41-2.23-0.62-3.34-0.92c-4.79-1.42-9.45,0-9.45,0c-0.65,0.16-1.33,0.29-1.99,0.48
		c-5.67,1.67-9.24,5.41-10.8,11.07c-0.16,0.57-0.34,0.77-0.93,0.75c-1-0.05-2.01-0.06-3.02,0c-7.58,0.39-13,4.03-16.2,10.91
		c-1.02,2.21,0.31,4.17,2.76,4.18c2.11,0.02,4.22,0.01,6.33,0.01h63.11C87.5,29.34,88.77,27.45,87.53,24.8z M38.16,14.14
		c1.3-3.43,3.54-5.86,7.11-6.28c3.12-0.38,6.36-0.38,9.49,0c3.57,0.42,5.81,2.85,7.11,6.28H38.16z"/>
	<path class="st0" d="M81.37,35.07c-0.28,3.93-0.55,7.79-0.82,11.65c-0.41,5.78-0.83,11.55-1.24,17.33
		c-0.54,7.6-1.08,15.2-1.63,22.79c-0.12,1.66-0.17,3.34-0.45,4.98c-0.67,3.87-4.1,6.83-8.04,6.84c-12.78,0.04-25.57,0.05-38.35,0
		c-4.31-0.02-7.91-3.56-8.21-7.87c-0.78-10.9-1.54-21.79-2.31-32.69c-0.53-7.44-1.08-14.88-1.62-22.32c-0.02-0.22,0-0.44,0-0.72
		C39.54,35.07,60.4,35.07,81.37,35.07z M43.01,65.46C43.02,65.46,43.02,65.46,43.01,65.46c-0.25-5.09-0.49-10.18-0.76-15.27
		c-0.09-1.59-1.4-2.77-2.94-2.71c-1.5,0.06-2.68,1.29-2.71,2.84c-0.01,0.5,0.03,1.01,0.05,1.51c0.3,5.97,0.6,11.94,0.9,17.91
		c0.18,3.61,0.36,7.23,0.56,10.84c0.09,1.67,1.36,2.86,2.95,2.8c1.53-0.05,2.71-1.32,2.71-2.93c0-0.5-0.03-1.01-0.06-1.51
		C43.48,74.44,43.24,69.95,43.01,65.46z M57,65.42C57,65.42,57,65.42,57,65.42c-0.22,4.49-0.45,8.98-0.68,13.48
		c-0.02,0.47-0.06,0.94-0.06,1.41c-0.02,1.69,1.12,2.99,2.68,3.06c1.63,0.07,2.9-1.13,2.98-2.86c0.31-5.97,0.61-11.94,0.91-17.91
		c0.2-4.05,0.42-8.1,0.58-12.16c0.07-1.66-1.19-2.95-2.77-2.97c-1.54-0.02-2.8,1.16-2.88,2.77C57.5,55.31,57.25,60.37,57,65.42z"/>
</g>
</svg>
